<svg width="889" height="201" viewBox="0 0 889 201" fill="none" xmlns="http://www.w3.org/2000/svg">
<path d="M889 0.157593H402.81V62.9373H425.551V200.403H485.106V62.9373H563.07V200.403H625.874V62.9373H793.712L703.837 139.788V200.403H889V139.788H798.041L889 62.9373V0.157593Z" fill="url(#paint0_linear_2004_21)"/>
<path fill-rule="evenodd" clip-rule="evenodd" d="M0 0.157593H148.347C174.525 6.43781 186.517 14.151 201.406 38.0409V0.157593H284.783V140.871H408.227V200.403H223.062V61.8538H206.82C206.543 80.7297 203.816 89.2091 195.991 101.904C204.703 114.997 207.213 122.341 206.82 135.456C199.723 180.825 185.342 189.975 155.927 200.403H22.7394V61.8538H0V0.157593ZM133.188 117.055H83.3778V148.446H137.519C137.519 148.446 148.347 140.871 146.182 130.045C144.016 119.222 133.188 117.055 133.188 117.055ZM132.105 52.1113H83.3778V83.5027H132.105C139.511 80.7072 143.6 79.037 146.182 68.3488C144.386 59.1897 141.387 55.5704 132.105 52.1113Z" fill="url(#paint1_linear_2004_21)"/>
<defs>
<linearGradient id="paint0_linear_2004_21" x1="888.355" y1="-61.8014" x2="9.71991e-07" y2="-61.8014" gradientUnits="userSpaceOnUse">
<stop offset="0.0151074" stop-color="#6658D1"/>
<stop offset="0.5099" stop-color="#4E3FC2"/>
<stop offset="0.51" stop-color="#4E3EC2"/>
<stop offset="1" stop-color="#0E19B3"/>
</linearGradient>
<linearGradient id="paint1_linear_2004_21" x1="888.355" y1="-61.8014" x2="9.71991e-07" y2="-61.8014" gradientUnits="userSpaceOnUse">
<stop offset="0.0151074" stop-color="#6658D1"/>
<stop offset="0.5099" stop-color="#4E3FC2"/>
<stop offset="0.51" stop-color="#4E3EC2"/>
<stop offset="1" stop-color="#0E19B3"/>
</linearGradient>
</defs>
</svg>
