<svg width="194" height="194" viewBox="0 0 194 194" fill="none" xmlns="http://www.w3.org/2000/svg">
<path d="M111.701 102.499L88.2993 78.9908L80 87.5L103.51 110.727L111.701 102.499Z" fill="white"/>
<path d="M166.109 157.157L122.276 113.684L113.5 122.5L157.333 165.973L166.109 157.157Z" fill="white"/>
<path d="M146.218 103.087L137.442 111.903L177.225 151.868C182.345 161.095 182.235 167.402 172.544 177.727C162.824 182.229 158.13 181.807 150.898 176.552L111.701 137.762L103.51 145.99L148.558 189.481C156.534 192.781 161.297 193.886 171.374 191.832C176.326 189.561 179.115 188.071 184.245 183.017C188.306 178.505 190.031 175.586 191.85 169.499C193.313 157.037 191.78 151.451 185.415 143.64L171.374 128.359L146.218 103.087Z" fill="white"/>
<path d="M37.6462 155.332H25.3605V167.674H37.6462V155.332Z" fill="white"/>
<path d="M21.8503 146.517C43.717 130.499 56.1333 121.518 78 105.5L70 97L14.2448 137.113C6.35962 142.835 3.60692 147.26 1.37405 157.096C0.515545 167.101 0.640955 172.552 7.2244 180.604C15.4171 189.215 20.553 192.487 31.7959 192.359C41.4258 192.133 46.8104 189.954 56.3673 179.429L96 122.5L87.5 113.684L57.5374 156.508L41.7415 178.253C28.9306 183.672 23.4412 181.55 15.4149 172.376C9.47398 160.393 12.3406 154.294 21.8503 146.517Z" fill="white"/>
<path fill-rule="evenodd" clip-rule="evenodd" d="M29.8707 4L36.8911 11.0526C44.431 18.0227 45.1639 23.0949 42.7415 33.3858L68.483 58.6576L78 68.5L69.5 76.5L34.551 42.2015C28.2315 45.0997 24.3613 45.4805 16.4149 42.2015L4.71419 30.4472L29.8707 4ZM29.8707 22.2192L21.6802 30.4472L24.0203 32.2104H27.5305L31.6258 28.0964V24.5701L29.8707 22.2192Z" fill="white"/>
<path fill-rule="evenodd" clip-rule="evenodd" d="M132.177 2L111.701 20.2192C95.4166 41.0421 96 64.5 111.701 81.3417C129.713 94.3651 140.49 98.3349 163.184 88.3942L190.68 60.1839L170.789 40.2015L157.333 53.719C141.788 59.0348 135.049 52.5559 138.612 37.8507L153.238 22.5701L132.177 2ZM136.272 22.5701L131.007 17.2806L130.422 16.6929L116.381 32.5612C112.091 38.0595 111.232 51.211 111.701 53.1313C111.775 53.4369 111.818 53.9231 111.874 54.5588C112.17 57.9176 112.834 65.4473 120.476 72.5259C127.603 78.2103 131.572 79.8017 138.612 80.1662C148.477 80.8487 153.126 79.4549 159.673 73.7013L173.714 61.3593L169.619 57.2453L156.748 67.8242C145.203 70.179 139.829 67.8963 131.592 60.7716C122.96 49.8487 123.468 44.0023 127.497 33.7367L136.272 22.5701Z" fill="white"/>
<path d="M111.701 102.499L88.2993 78.9908L80 87.5L103.51 110.727L111.701 102.499Z" stroke="white" stroke-width="2"/>
<path d="M166.109 157.157L122.276 113.684L113.5 122.5L157.333 165.973L166.109 157.157Z" stroke="white" stroke-width="2"/>
<path d="M146.218 103.087L137.442 111.903L177.225 151.868C182.345 161.095 182.235 167.402 172.544 177.727C162.824 182.229 158.13 181.807 150.898 176.552L111.701 137.762L103.51 145.99L148.558 189.481C156.534 192.781 161.297 193.886 171.374 191.832C176.326 189.561 179.115 188.071 184.245 183.017C188.306 178.505 190.031 175.586 191.85 169.499C193.313 157.037 191.78 151.451 185.415 143.64L171.374 128.359L146.218 103.087Z" stroke="white" stroke-width="2"/>
<path d="M37.6462 155.332H25.3605V167.674H37.6462V155.332Z" stroke="white" stroke-width="2"/>
<path d="M21.8503 146.517C43.717 130.499 56.1333 121.518 78 105.5L70 97L14.2448 137.113C6.35962 142.835 3.60692 147.26 1.37405 157.096C0.515545 167.101 0.640955 172.552 7.2244 180.604C15.4171 189.215 20.553 192.487 31.7959 192.359C41.4258 192.133 46.8104 189.954 56.3673 179.429L96 122.5L87.5 113.684L57.5374 156.508L41.7415 178.253C28.9306 183.672 23.4412 181.55 15.4149 172.376C9.47398 160.393 12.3406 154.294 21.8503 146.517Z" stroke="white" stroke-width="2"/>
<path fill-rule="evenodd" clip-rule="evenodd" d="M29.8707 4L36.8911 11.0526C44.431 18.0227 45.1639 23.0949 42.7415 33.3858L68.483 58.6576L78 68.5L69.5 76.5L34.551 42.2015C28.2315 45.0997 24.3613 45.4805 16.4149 42.2015L4.71419 30.4472L29.8707 4ZM29.8707 22.2192L21.6802 30.4472L24.0203 32.2104H27.5305L31.6258 28.0964V24.5701L29.8707 22.2192Z" stroke="white" stroke-width="2"/>
<path fill-rule="evenodd" clip-rule="evenodd" d="M132.177 2L111.701 20.2192C95.4166 41.0421 96 64.5 111.701 81.3417C129.713 94.3651 140.49 98.3349 163.184 88.3942L190.68 60.1839L170.789 40.2015L157.333 53.719C141.788 59.0348 135.049 52.5559 138.612 37.8507L153.238 22.5701L132.177 2ZM136.272 22.5701L131.007 17.2806L130.422 16.6929L116.381 32.5612C112.091 38.0595 111.232 51.211 111.701 53.1313C111.775 53.4369 111.818 53.9231 111.874 54.5588C112.17 57.9176 112.834 65.4473 120.476 72.5259C127.603 78.2103 131.572 79.8017 138.612 80.1662C148.477 80.8487 153.126 79.4549 159.673 73.7013L173.714 61.3593L169.619 57.2453L156.748 67.8242C145.203 70.179 139.829 67.8963 131.592 60.7716C122.96 49.8487 123.468 44.0023 127.497 33.7367L136.272 22.5701Z" stroke="white" stroke-width="2"/>
</svg>
