<svg width="1134" height="201" viewBox="0 0 1134 201" fill="none" xmlns="http://www.w3.org/2000/svg">
<path d="M111.701 109.499L88.2993 85.9908L80 94.5L103.51 117.727L111.701 109.499Z" fill="#171FB5"/>
<path d="M166.109 164.157L122.276 120.684L113.5 129.5L157.333 172.973L166.109 164.157Z" fill="#171FB5"/>
<path d="M146.218 110.087L137.442 118.903L177.225 158.868C182.345 168.095 182.235 174.402 172.544 184.727C162.824 189.229 158.13 188.807 150.898 183.552L111.701 144.762L103.51 152.99L148.558 196.481C156.534 199.781 161.297 200.886 171.374 198.832C176.326 196.561 179.115 195.071 184.245 190.017C188.306 185.505 190.031 182.586 191.85 176.499C193.313 164.037 191.78 158.451 185.415 150.64L171.374 135.359L146.218 110.087Z" fill="#171FB5"/>
<path d="M37.6462 162.332H25.3605V174.674H37.6462V162.332Z" fill="#171FB5"/>
<path d="M21.8503 153.517C43.717 137.499 56.1333 128.518 78 112.5L70 104L14.2448 144.113C6.35962 149.835 3.60692 154.26 1.37405 164.096C0.515545 174.101 0.640955 179.552 7.2244 187.604C15.4171 196.215 20.553 199.487 31.7959 199.359C41.4258 199.133 46.8104 196.954 56.3673 186.429L96 129.5L87.5 120.684L57.5374 163.508L41.7415 185.253C28.9306 190.672 23.4412 188.55 15.4149 179.376C9.47398 167.393 12.3406 161.294 21.8503 153.517Z" fill="#171FB5"/>
<path fill-rule="evenodd" clip-rule="evenodd" d="M29.8707 11L36.8911 18.0526C44.431 25.0227 45.1639 30.0949 42.7415 40.3858L68.483 65.6576L78 75.5L69.5 83.5L34.551 49.2015C28.2315 52.0997 24.3613 52.4805 16.4149 49.2015L4.71419 37.4472L29.8707 11ZM29.8707 29.2192L21.6802 37.4472L24.0203 39.2104H27.5305L31.6258 35.0964V31.5701L29.8707 29.2192Z" fill="#171FB5"/>
<path fill-rule="evenodd" clip-rule="evenodd" d="M132.177 9L111.701 27.2192C95.4166 48.0421 96 71.5 111.701 88.3417C129.713 101.365 140.49 105.335 163.184 95.3942L190.68 67.1839L170.789 47.2015L157.333 60.719C141.788 66.0348 135.049 59.5559 138.612 44.8507L153.238 29.5701L132.177 9ZM136.272 29.5701L131.007 24.2806L130.422 23.6929L116.381 39.5612C112.091 45.0595 111.232 58.211 111.701 60.1313C111.775 60.4369 111.818 60.9231 111.874 61.5588C112.17 64.9176 112.834 72.4473 120.476 79.5259C127.603 85.2103 131.572 86.8017 138.612 87.1662C148.477 87.8487 153.126 86.4549 159.673 80.7013L173.714 68.3593L169.619 64.2453L156.748 74.8242C145.203 77.179 139.829 74.8963 131.592 67.7716C122.96 56.8487 123.468 51.0023 127.497 40.7367L136.272 29.5701Z" fill="#171FB5"/>
<path d="M111.701 109.499L88.2993 85.9908L80 94.5L103.51 117.727L111.701 109.499Z" stroke="#121CB4" stroke-width="2"/>
<path d="M166.109 164.157L122.276 120.684L113.5 129.5L157.333 172.973L166.109 164.157Z" stroke="#121CB4" stroke-width="2"/>
<path d="M146.218 110.087L137.442 118.903L177.225 158.868C182.345 168.095 182.235 174.402 172.544 184.727C162.824 189.229 158.13 188.807 150.898 183.552L111.701 144.762L103.51 152.99L148.558 196.481C156.534 199.781 161.297 200.886 171.374 198.832C176.326 196.561 179.115 195.071 184.245 190.017C188.306 185.505 190.031 182.586 191.85 176.499C193.313 164.037 191.78 158.451 185.415 150.64L171.374 135.359L146.218 110.087Z" stroke="#121CB4" stroke-width="2"/>
<path d="M37.6462 162.332H25.3605V174.674H37.6462V162.332Z" stroke="#121CB4" stroke-width="2"/>
<path d="M21.8503 153.517C43.717 137.499 56.1333 128.518 78 112.5L70 104L14.2448 144.113C6.35962 149.835 3.60692 154.26 1.37405 164.096C0.515545 174.101 0.640955 179.552 7.2244 187.604C15.4171 196.215 20.553 199.487 31.7959 199.359C41.4258 199.133 46.8104 196.954 56.3673 186.429L96 129.5L87.5 120.684L57.5374 163.508L41.7415 185.253C28.9306 190.672 23.4412 188.55 15.4149 179.376C9.47398 167.393 12.3406 161.294 21.8503 153.517Z" stroke="#121CB4" stroke-width="2"/>
<path fill-rule="evenodd" clip-rule="evenodd" d="M29.8707 11L36.8911 18.0526C44.431 25.0227 45.1639 30.0949 42.7415 40.3858L68.483 65.6576L78 75.5L69.5 83.5L34.551 49.2015C28.2315 52.0997 24.3613 52.4805 16.4149 49.2015L4.71419 37.4472L29.8707 11ZM29.8707 29.2192L21.6802 37.4472L24.0203 39.2104H27.5305L31.6258 35.0964V31.5701L29.8707 29.2192Z" stroke="#121CB4" stroke-width="2"/>
<path fill-rule="evenodd" clip-rule="evenodd" d="M132.177 9L111.701 27.2192C95.4166 48.0421 96 71.5 111.701 88.3417C129.713 101.365 140.49 105.335 163.184 95.3942L190.68 67.1839L170.789 47.2015L157.333 60.719C141.788 66.0348 135.049 59.5559 138.612 44.8507L153.238 29.5701L132.177 9ZM136.272 29.5701L131.007 24.2806L130.422 23.6929L116.381 39.5612C112.091 45.0595 111.232 58.211 111.701 60.1313C111.775 60.4369 111.818 60.9231 111.874 61.5588C112.17 64.9176 112.834 72.4473 120.476 79.5259C127.603 85.2103 131.572 86.8017 138.612 87.1662C148.477 87.8487 153.126 86.4549 159.673 80.7013L173.714 68.3593L169.619 64.2453L156.748 74.8242C145.203 77.179 139.829 74.8963 131.592 67.7716C122.96 56.8487 123.468 51.0023 127.497 40.7367L136.272 29.5701Z" stroke="#121CB4" stroke-width="2"/>
<path d="M1134 0.157593H647.81V62.9373H670.551V200.403H730.106V62.9373H808.07V200.403H870.874V62.9373H1038.71L948.837 139.788V200.403H1134V139.788H1043.04L1134 62.9373V0.157593Z" fill="url(#paint0_linear_2006_25)"/>
<path fill-rule="evenodd" clip-rule="evenodd" d="M245 0.157593H393.347C419.525 6.43781 431.517 14.151 446.406 38.0409V0.157593H529.783V140.871H653.227V200.403H468.062V61.8538H451.82C451.543 80.7297 448.816 89.2091 440.991 101.904C449.703 114.997 452.213 122.341 451.82 135.456C444.723 180.825 430.342 189.975 400.927 200.403H267.739V61.8538H245V0.157593ZM378.188 117.055H328.378V148.446H382.519C382.519 148.446 393.347 140.871 391.182 130.045C389.016 119.222 378.188 117.055 378.188 117.055ZM377.105 52.1113H328.378V83.5027H377.105C384.511 80.7072 388.6 79.037 391.182 68.3488C389.386 59.1897 386.387 55.5704 377.105 52.1113Z" fill="url(#paint1_linear_2006_25)"/>
<defs>
<linearGradient id="paint0_linear_2006_25" x1="1133.36" y1="-61.8014" x2="245" y2="-61.8014" gradientUnits="userSpaceOnUse">
<stop offset="0.0151074" stop-color="#6658D1"/>
<stop offset="0.5099" stop-color="#4E3FC2"/>
<stop offset="0.51" stop-color="#4E3EC2"/>
<stop offset="1" stop-color="#0E19B3"/>
</linearGradient>
<linearGradient id="paint1_linear_2006_25" x1="1133.36" y1="-61.8014" x2="245" y2="-61.8014" gradientUnits="userSpaceOnUse">
<stop offset="0.0151074" stop-color="#6658D1"/>
<stop offset="0.5099" stop-color="#4E3FC2"/>
<stop offset="0.51" stop-color="#4E3EC2"/>
<stop offset="1" stop-color="#0E19B3"/>
</linearGradient>
</defs>
</svg>
