<svg width="881" height="200" viewBox="0 0 881 200" fill="none" xmlns="http://www.w3.org/2000/svg">
<path d="M879.772 1H399.221V63.0757H421.697V199H480.562V63.0757H557.621V199H619.697V63.0757H785.589L696.756 139.065V199H879.772V139.065H789.87L879.772 63.0757V1Z" fill="white" stroke="white"/>
<path fill-rule="evenodd" clip-rule="evenodd" d="M1.08057 1H132.724H147.708C173.582 7.21255 185.435 14.8364 200.151 38.4595V1H282.562V140.135H404.572V199H221.556V62.0054H205.502C205.228 80.6704 202.533 89.0546 194.799 101.605C203.41 114.551 205.891 121.815 205.502 134.784C198.488 179.644 184.273 188.69 155.199 199H23.5562V62.0054H1.08057V1ZM132.724 116.589H83.4914V147.627H137.005C137.005 147.627 147.708 140.135 145.567 129.432C143.427 118.73 132.724 116.589 132.724 116.589ZM131.654 52.373H83.4914V83.4108H131.654C138.974 80.6474 143.015 78.9962 145.567 68.427C143.792 59.3701 140.828 55.794 131.654 52.373Z" fill="white" stroke="white"/>
</svg>
